<svg width="24" height="24" viewBox="0 0 24 24" fill="none" xmlns="http://www.w3.org/2000/svg">
<path d="M21.5156 10.5937L15.5681 8.43187L13.4062 2.48439C13.2997 2.19732 13.1078 1.94974 12.8565 1.77491C12.6051 1.60007 12.3062 1.50636 12 1.50636C11.6938 1.50636 11.3949 1.60007 11.1435 1.77491C10.8922 1.94974 10.7003 2.19732 10.5937 2.48439L8.43187 8.43187L2.48437 10.5937C2.1973 10.7003 1.94972 10.8922 1.77489 11.1435C1.60006 11.3949 1.50635 11.6938 1.50635 12C1.50635 12.3062 1.60006 12.6051 1.77489 12.8565C1.94972 13.1079 2.1973 13.2997 2.48437 13.4062L8.43187 15.5691L10.5937 21.5156C10.7003 21.8027 10.8922 22.0503 11.1435 22.2251C11.3949 22.3999 11.6938 22.4937 12 22.4937C12.3062 22.4937 12.6051 22.3999 12.8565 22.2251C13.1078 22.0503 13.2997 21.8027 13.4062 21.5156L15.5691 15.5681L21.5156 13.4062C21.8027 13.2997 22.0503 13.1079 22.2251 12.8565C22.3999 12.6051 22.4937 12.3062 22.4937 12C22.4937 11.6938 22.3999 11.3949 22.2251 11.1435C22.0503 10.8922 21.8027 10.7003 21.5156 10.5937ZM14.7262 14.2781C14.6234 14.3156 14.5299 14.3751 14.4525 14.4525C14.3751 14.53 14.3156 14.6234 14.2781 14.7262L12 20.9906L9.72187 14.7262C9.6844 14.6234 9.62489 14.53 9.54745 14.4525C9.47005 14.3751 9.3766 14.3156 9.27374 14.2781L3.00937 12L9.27374 9.72187C9.3766 9.68441 9.47005 9.6249 9.54745 9.54746C9.62489 9.47006 9.6844 9.37665 9.72187 9.27375L12 3.00939L14.2781 9.27375C14.3156 9.37665 14.3751 9.47006 14.4525 9.54746C14.5299 9.6249 14.6234 9.68441 14.7262 9.72187L20.9906 12L14.7262 14.2781Z" fill="#1E2382"/>
<path d="M22.7795 19.4513C22.7801 19.5379 22.7538 19.6224 22.7042 19.6933C22.6546 19.7642 22.5841 19.8179 22.5026 19.8468L20.8299 20.4551L20.2218 22.1276C20.1919 22.2084 20.1379 22.278 20.0672 22.3272C19.9965 22.3763 19.9125 22.4027 19.8263 22.4027C19.7402 22.4027 19.6562 22.3763 19.5855 22.3272C19.5148 22.278 19.4608 22.2084 19.4308 22.1276L18.8228 20.4549L17.1501 19.8468C17.0693 19.8169 16.9997 19.7629 16.9505 19.6922C16.9014 19.6215 16.875 19.5375 16.875 19.4513C16.875 19.3652 16.9014 19.2812 16.9505 19.2105C16.9997 19.1398 17.0693 19.0858 17.1501 19.0558L18.8228 18.4478L19.4308 16.7751C19.4608 16.6943 19.5148 16.6247 19.5855 16.5755C19.6562 16.5264 19.7402 16.5 19.8263 16.5C19.9125 16.5 19.9965 16.5264 20.0672 16.5755C20.1379 16.6247 20.1919 16.6943 20.2218 16.7751L20.8301 18.4478L22.5026 19.0558C22.5841 19.0848 22.6546 19.1385 22.7042 19.2094C22.7538 19.2802 22.7801 19.3648 22.7795 19.4513Z" fill="#FF6839"/>
<path d="M7.40445 4.45132C7.40512 4.53787 7.37884 4.62244 7.32922 4.69331C7.27961 4.76419 7.20911 4.81785 7.12762 4.84684L5.45486 5.45512L4.84684 7.12762C4.81687 7.20836 4.76291 7.27796 4.69222 7.32716C4.6215 7.37632 4.53746 7.40269 4.45132 7.40269C4.36523 7.40269 4.28115 7.37632 4.21046 7.32716C4.13977 7.27796 4.08581 7.20836 4.05581 7.12762L3.4478 5.45486L1.77507 4.84684C1.69433 4.81687 1.6247 4.76291 1.57553 4.69222C1.52635 4.6215 1.5 4.53746 1.5 4.45132C1.5 4.36522 1.52635 4.28115 1.57553 4.21046C1.6247 4.13977 1.69433 4.08581 1.77507 4.05581L3.4478 3.4478L4.05581 1.77507C4.08581 1.69433 4.13977 1.6247 4.21046 1.57553C4.28115 1.52635 4.36523 1.5 4.45132 1.5C4.53746 1.5 4.6215 1.52635 4.69222 1.57553C4.76291 1.6247 4.81687 1.69433 4.84684 1.77507L5.45512 3.4478L7.12762 4.05581C7.20911 4.0848 7.27961 4.13846 7.32922 4.20937C7.37884 4.28025 7.40512 4.36481 7.40445 4.45132Z" fill="#00A9C1"/>
</svg>
