<svg width="20" height="20" viewBox="0 0 20 20" fill="none" xmlns="http://www.w3.org/2000/svg">
<path d="M17.5 6.25002V5.00002C17.5 4.55799 17.3244 4.13407 17.0118 3.82151C16.6993 3.50895 16.2754 3.33335 15.8333 3.33335H4.16667C3.72464 3.33335 3.30072 3.50895 2.98816 3.82151C2.67559 4.13407 2.5 4.55799 2.5 5.00002V16.6667C2.5 17.1087 2.67559 17.5326 2.98816 17.8452C3.30072 18.1578 3.72464 18.3334 4.16667 18.3334H7.08333M13.3333 1.66669V5.00002M6.66667 1.66669V5.00002M2.5 8.33335H6.66667M14.5833 14.5834L13.3333 13.5834V11.6667M18.3333 13.3334C18.3333 16.0948 16.0948 18.3334 13.3333 18.3334C10.5719 18.3334 8.33333 16.0948 8.33333 13.3334C8.33333 10.5719 10.5719 8.33335 13.3333 8.33335C16.0948 8.33335 18.3333 10.5719 18.3333 13.3334Z" stroke="#344256" stroke-width="1.5" stroke-linecap="round" stroke-linejoin="round"/>
</svg>
