<svg width="13" height="13" viewBox="0 0 13 13" fill="none" xmlns="http://www.w3.org/2000/svg">
<g clip-path="url(#clip0_311_6013)">
<path d="M11.3547 5.20836C11.5926 6.3757 11.4231 7.58931 10.8745 8.64679C10.3258 9.70428 9.43125 10.5417 8.3399 11.0195C7.24856 11.4972 6.02642 11.5864 4.87729 11.2721C3.72816 10.9578 2.72151 10.2591 2.0252 9.29243C1.32889 8.32578 0.985011 7.14963 1.05092 5.96012C1.11683 4.77062 1.58853 3.63966 2.38737 2.75584C3.18621 1.87203 4.2639 1.28879 5.44071 1.10339C6.61753 0.917981 7.82233 1.14162 8.85422 1.737M4.6875 5.7292L6.25 7.2917L11.4583 2.08336" stroke="#00A9C1" stroke-width="1.5" stroke-linecap="round" stroke-linejoin="round"/>
</g>
<defs>
<clipPath id="clip0_311_6013">
<rect width="12.5" height="12.5" fill="white"/>
</clipPath>
</defs>
</svg>
