<svg width="20" height="20" viewBox="0 0 20 20" fill="none" xmlns="http://www.w3.org/2000/svg">
<path d="M18.3333 8.33331V13.3333M5.00001 10.4166V13.3333C5.00001 13.9964 5.52679 14.6322 6.46448 15.1011C7.40216 15.5699 8.67393 15.8333 10 15.8333C11.3261 15.8333 12.5979 15.5699 13.5355 15.1011C14.4732 14.6322 15 13.9964 15 13.3333V10.4166M17.85 9.10174C17.9992 9.03593 18.1258 8.9278 18.2142 8.79074C18.3025 8.65369 18.3487 8.49373 18.347 8.33069C18.3453 8.16764 18.2958 8.00868 18.2047 7.87348C18.1135 7.73828 17.9847 7.63279 17.8342 7.57007L10.6917 4.31674C10.4746 4.2177 10.2387 4.16644 10 4.16644C9.76139 4.16644 9.52551 4.2177 9.30838 4.31674L2.16671 7.56674C2.01835 7.63172 1.89214 7.73852 1.80352 7.87409C1.71489 8.00965 1.66769 8.16811 1.66769 8.33007C1.66769 8.49204 1.71489 8.65049 1.80352 8.78606C1.89214 8.92163 2.01835 9.02843 2.16671 9.09341L9.30838 12.3501C9.52551 12.4491 9.76139 12.5004 10 12.5004C10.2387 12.5004 10.4746 12.4491 10.6917 12.3501L17.85 9.10174Z" stroke="#E6F6F9" stroke-width="1.5" stroke-linecap="round" stroke-linejoin="round"/>
</svg>
