<svg width="20" height="20" viewBox="0 0 20 20" fill="none" xmlns="http://www.w3.org/2000/svg">
<path fill-rule="evenodd" clip-rule="evenodd" d="M10 11.6667C10.9205 11.6667 11.6667 10.9205 11.6667 10C11.6667 9.07953 10.9205 8.33334 10 8.33334C9.07953 8.33334 8.33333 9.07953 8.33333 10C8.33333 10.9205 9.07953 11.6667 10 11.6667Z" fill="#0B0C2E"/>
<path fill-rule="evenodd" clip-rule="evenodd" d="M4.16667 11.6667C5.08714 11.6667 5.83333 10.9205 5.83333 10C5.83333 9.07953 5.08714 8.33334 4.16667 8.33334C3.24619 8.33334 2.5 9.07953 2.5 10C2.5 10.9205 3.24619 11.6667 4.16667 11.6667Z" fill="#0B0C2E"/>
<path fill-rule="evenodd" clip-rule="evenodd" d="M15.8333 11.6667C16.7538 11.6667 17.5 10.9205 17.5 10C17.5 9.07953 16.7538 8.33334 15.8333 8.33334C14.9129 8.33334 14.1667 9.07953 14.1667 10C14.1667 10.9205 14.9129 11.6667 15.8333 11.6667Z" fill="#0B0C2E"/>
</svg>
