<svg width="15" height="18" viewBox="0 0 15 18" fill="none" xmlns="http://www.w3.org/2000/svg">
<path d="M6.17606 17.4545H0V0H6.22676C7.97949 0 9.48787 0.34944 10.7527 1.04828C12.0171 1.74148 12.9897 2.73864 13.6705 4.03976C14.3568 5.34092 14.6997 6.89772 14.6997 8.71024C14.6997 10.5284 14.3568 12.0909 13.6705 13.3977C12.9897 14.7045 12.0116 15.7074 10.7355 16.4062C9.46511 17.1051 7.94515 17.4545 6.17606 17.4545ZM3.68351 14.2926H6.02275C7.11151 14.2926 8.0274 14.0994 8.77041 13.7131C9.51901 13.321 10.0804 12.7159 10.4549 11.8977C10.8349 11.0738 11.0246 10.0114 11.0246 8.71024C11.0246 7.42044 10.8349 6.36648 10.4549 5.54828C10.0804 4.73012 9.5218 4.12784 8.77879 3.74148C8.03618 3.35512 7.12029 3.16192 6.03113 3.16192H3.68351V14.2926Z" fill="#1E2382"/>
</svg>
